<svg id="visual" viewBox="0 0 900 600" width="900" height="600" xmlns="http://www.w3.org/2000/svg" xmlns:xlink="http://www.w3.org/1999/xlink" version="1.1"><rect x="0" y="0" width="900" height="600" fill="#FF0066"></rect><g transform="translate(461.5564622816026 306.6294770246827)"><path d="M108 -144C139.3 -126 163.3 -93.4 181 -55C198.8 -16.6 210.2 27.7 202.8 70.6C195.3 113.5 169.1 155.1 132.2 176.6C95.2 198.1 47.6 199.5 8.8 187.4C-30 175.3 -60 149.5 -83.7 123.7C-107.5 98 -125.1 72.2 -153.7 37.4C-182.3 2.6 -221.9 -41.2 -227.5 -89.4C-233.1 -137.6 -204.7 -190.1 -161.1 -204.1C-117.6 -218.1 -58.8 -193.6 -10.2 -179.5C38.4 -165.5 76.8 -162 108 -144" fill="#BB004B"></path></g></svg>